HIERARCHY
ROOT Hips
{
 OFFSET 0.000000 0.000000 0.000000
 CHANNELS 6 Xposition Yposition Zposition Yrotation Xrotation Zrotation
 JOINT Chest
 {
  OFFSET 0.000000 9.876139 0.000104
  CHANNELS 3 Yrotation Xrotation Zrotation
  JOINT Chest2
  {
   OFFSET 0.000000 10.876137 -0.000189
   CHANNELS 3 Yrotation Xrotation Zrotation
   JOINT Chest3
   {
    OFFSET 0.000000 9.827065 0.000000
    CHANNELS 3 Yrotation Xrotation Zrotation
    JOINT Chest4
    {
     OFFSET 0.000000 9.827065 0.000000
     CHANNELS 3 Yrotation Xrotation Zrotation
     JOINT Neck
     {
      OFFSET 0.000000 13.837564 0.000000
      CHANNELS 3 Yrotation Xrotation Zrotation
      JOINT Head
      {
       OFFSET 0.000000 9.147059 -0.000448
       CHANNELS 3 Yrotation Xrotation Zrotation
       End Site
       {
        OFFSET 0.000000 17.513050 -0.000234
       }
      }
     }
     JOINT RightCollar
     {
      OFFSET -3.007721 7.720841 0.000000
      CHANNELS 3 Yrotation Xrotation Zrotation
      JOINT RightShoulder
      {
       OFFSET -14.032560 0.000000 0.000000
       CHANNELS 3 Yrotation Xrotation Zrotation
       JOINT RightElbow
       {
        OFFSET -30.066962 0.000000 0.000000
        CHANNELS 3 Yrotation Xrotation Zrotation
        JOINT RightWrist
        {
         OFFSET -24.575761 0.000000 0.000000
         CHANNELS 3 Yrotation Xrotation Zrotation
         JOINT Prop1
         {
          OFFSET -3.508170 -1.002334 -2.004669
          CHANNELS 3 Yrotation Xrotation Zrotation
          End Site
          {
           OFFSET -75.170729 -33.091210 23.052389
          }
         }
         End Site
         {
          OFFSET -18.342718 0.000000 0.000000
         }
        }
       }
      }
     }
     JOINT LeftCollar
     {
      OFFSET 3.007721 7.720841 0.000000
      CHANNELS 3 Yrotation Xrotation Zrotation
      JOINT LeftShoulder
      {
       OFFSET 14.032560 0.000000 0.000000
       CHANNELS 3 Yrotation Xrotation Zrotation
       JOINT LeftElbow
       {
        OFFSET 30.066962 0.000000 0.000000
        CHANNELS 3 Yrotation Xrotation Zrotation
        JOINT LeftWrist
        {
         OFFSET 24.575761 0.000000 0.000000
         CHANNELS 3 Yrotation Xrotation Zrotation
         End Site
         {
          OFFSET 18.342718 0.000000 0.000000
         }
        }
       }
      }
     }
    }
   }
  }
 }
 JOINT RightHip
 {
  OFFSET -8.019680 -0.000509 -0.000052
  CHANNELS 3 Yrotation Xrotation Zrotation
  JOINT RightKnee
  {
   OFFSET 0.000000 -41.754945 0.000049
   CHANNELS 3 Yrotation Xrotation Zrotation
   JOINT RightAnkle
   {
    OFFSET 0.000000 -40.737371 0.000083
    CHANNELS 3 Yrotation Xrotation Zrotation
    JOINT RightToe
    {
     OFFSET 0.000000 -6.498123 14.692914
     CHANNELS 3 Yrotation Xrotation Zrotation
     End Site
     {
      OFFSET 0.000000 -1.503208 6.410318
     }
    }
   }
  }
 }
 JOINT LeftHip
 {
  OFFSET 8.019680 -0.000509 -0.000052
  CHANNELS 3 Yrotation Xrotation Zrotation
  JOINT LeftKnee
  {
   OFFSET 0.000000 -41.754945 0.000049
   CHANNELS 3 Yrotation Xrotation Zrotation
   JOINT LeftAnkle
   {
    OFFSET 0.000000 -40.737371 0.000083
    CHANNELS 3 Yrotation Xrotation Zrotation
    JOINT LeftToe
    {
     OFFSET 0.000000 -6.498123 14.692914
     CHANNELS 3 Yrotation Xrotation Zrotation
     End Site
     {
      OFFSET 0.000000 -1.503208 6.410318
     }
    }
   }
  }
 }
}
MOTION
Frames: 8
Frame Time: 0.016667
0.000000 88.808225 0.000000 0.000000 -5.826342 0.000000 0.000000 11.116423 0.000000 0.000000 -5.290081 0.000000 0.000000 0.000000 0.000000 0.000000 0.000000 0.000000 0.000000 12.665069 0.000000 0.000000 0.575450 0.000000 0.000000 0.000000 0.000000 0.000000 0.000000 0.000000 2.337306 0.000000 0.000000 -2.337306 0.000000 0.000000 0.000000 0.000000 0.000000 0.000000 0.000000 0.000000 0.000000 0.000000 0.000000 -2.337306 0.000000 0.000000 2.337306 0.000000 0.000000 0.000000 8.578828 0.000000 0.000000 1.905768 0.000000 0.000000 -4.658254 0.000000 0.000000 0.000000 0.000000 0.000000 8.578828 0.000000 0.000000 1.905768 0.000000 0.000000 -4.658254 0.000000 0.000000 0.000000 0.000000
-16.405736 79.089509 23.739620 -151.499751 -7.935671 3.951115 -2.737888 11.307379 -0.939995 -1.215360 5.022596 -0.350917 -1.215360 5.022596 -0.350917 -0.908045 3.767663 -0.253009 -12.389074 13.903092 5.634643 -25.392643 -8.055303 15.215090 6.547004 5.334556 5.224261 -24.717107 -58.486940 84.511696 33.728441 6.654581 -3.348322 -3.152921 3.682329 -19.146065 -28.304165 -6.392233 -91.833672 7.578713 -0.861256 -12.080883 14.281114 -3.976288 -74.221353 -49.489289 4.645892 0.021691 -1.374326 -3.718455 5.394927 -19.996743 -40.897593 -20.979121 -12.647815 53.787291 -5.736872 3.729975 2.504382 -4.028749 -0.517131 -8.465683 7.979425 34.014777 -1.132494 29.837958 -33.738655 28.905561 -15.425287 -6.862504 -31.210781 -1.763174 -0.029621 -0.471373 -0.201422
-16.468737 79.075804 23.732300 -151.407012 -7.792086 3.961796 -2.737662 11.263848 -0.937671 -1.221626 4.998770 -0.349172 -1.221626 4.998770 -0.349172 -0.912775 3.749794 -0.251699 -12.416623 13.875102 5.658143 -25.458528 -8.093086 15.274938 6.525400 5.239938 5.231542 -24.891489 -58.406173 84.497063 33.619373 6.771426 -3.462674 -3.077012 3.721196 -19.373166 -28.308027 -6.389908 -92.067396 7.588899 -0.895655 -12.044304 14.309461 -4.044564 -74.229822 -49.510604 4.547360 0.012802 -1.375085 -3.698461 5.437910 -19.694399 -40.963060 -21.068507 -12.527889 53.826060 -5.668368 3.345739 2.532620 -3.918864 -0.499646 -8.560018 8.067630 34.151441 -1.328956 29.628465 -34.103105 28.991612 -15.501908 -6.588811 -31.112903 -1.654130 -0.076902 -0.490256 -0.236121
-16.499039 79.080167 23.711374 -151.319304 -7.668712 3.964317 -2.731349 11.233348 -0.917901 -1.224791 4.982963 -0.354119 -1.224791 4.982963 -0.354119 -0.915120 3.737950 -0.255414 -12.439797 13.844767 5.694224 -25.521297 -8.132764 15.357164 6.515488 5.201683 5.227485 -25.145644 -58.343714 84.624671 33.567897 6.880188 -3.637820 -3.019840 3.772476 -19.598886 -28.302025 -6.366090 -92.346680 7.586346 -0.912599 -12.012101 14.356202 -4.119875 -74.235242 -49.544082 4.481004 -0.022085 -1.380566 -3.688035 5.505705 -19.380448 -40.976648 -21.130735 -12.438967 53.829734 -5.640367 3.045999 2.572817 -3.839154 -0.506561 -8.667325 8.192906 34.292332 -1.485653 29.397200 -34.690430 29.052744 -15.544835 -6.294876 -31.085839 -1.561535 -0.068195 -0.506749 -0.230500
-16.525314 79.105175 23.674107 -151.245329 -7.593448 3.984072 -2.741702 11.212957 -0.915481 -1.223954 4.980718 -0.360889 -1.223954 4.980718 -0.360889 -0.914439 3.736280 -0.260500 -12.453472 13.818690 5.731090 -25.565751 -8.166783 15.436566 6.542574 5.197273 5.220115 -25.446063 -58.336982 84.794028 33.537000 6.985493 -3.807744 -2.979450 3.796280 -19.735880 -28.287321 -6.328501 -92.605228 7.574013 -0.894396 -12.003362 14.392878 -4.194871 -74.228580 -49.601978 4.443859 -0.043546 -1.378384 -3.689261 5.561486 -19.052170 -40.925912 -21.189122 -12.406509 53.796730 -5.692962 2.755769 2.623144 -3.752899 -0.542639 -8.773940 8.332023 34.389432 -1.550336 29.211528 -35.008681 29.118610 -15.484669 -6.099622 -31.013350 -1.582510 -0.042826 -0.537543 -0.188767
-16.534761 79.146919 23.621872 -151.125816 -7.539079 4.003676 -2.778758 11.195333 -0.917890 -1.231817 4.987485 -0.367202 -1.231817 4.987485 -0.367202 -0.920275 3.741373 -0.265153 -12.462046 13.799304 5.764562 -25.597991 -8.190794 15.506266 6.572364 5.255349 5.194712 -25.840081 -58.423508 85.035463 33.498053 7.032958 -3.853137 -2.889526 3.841944 -19.813905 -28.299057 -6.285582 -92.716203 7.556787 -0.904921 -12.013721 14.384934 -4.204120 -74.187772 -49.682274 4.400507 -0.035667 -1.381010 -3.678725 5.581578 -18.749011 -40.834422 -21.246700 -12.403161 53.747761 -5.782585 2.491237 2.676822 -3.676002 -0.574940 -8.885375 8.492243 34.354694 -1.566479 29.098114 -34.900823 29.176231 -15.330326 -6.190120 -30.865493 -1.647308 -0.006093 -0.562859 -0.126415
-16.534139 79.201879 23.555544 -150.954785 -7.515530 4.010116 -2.826571 11.200043 -0.920159 -1.247750 4.998444 -0.372761 -1.247750 4.998444 -0.372761 -0.932162 3.749613 -0.269166 -12.475566 13.787443 5.797569 -25.637487 -8.200011 15.574823 6.598181 5.262342 5.206990 -26.136393 -58.470889 85.156796 33.474046 7.079723 -3.875159 -2.798763 3.891206 -19.843315 -28.307770 -6.277546 -92.603259 7.544502 -0.938739 -12.004455 14.319180 -4.149185 -74.137153 -49.771487 4.341281 -0.012398 -1.375628 -3.667095 5.560435 -18.592341 -40.727260 -21.230686 -12.324320 53.706659 -5.868814 2.204312 2.720232 -3.614521 -0.606888 -9.000238 8.660791 34.160991 -1.534723 29.060864 -34.569296 29.224310 -15.189201 -6.394058 -30.674893 -1.737475 0.030303 -0.588191 -0.048395
-16.520598 79.272130 23.476282 -150.762905 -7.477593 4.008798 -2.872429 11.200706 -0.921134 -1.266913 4.998627 -0.377012 -1.266913 4.998627 -0.377012 -0.946491 3.749772 -0.272195 -12.495677 13.788139 5.825120 -25.684328 -8.186247 15.632245 6.585321 5.212931 5.230208 -26.266044 -58.390917 85.124486 33.467930 7.123817 -3.843935 -2.696726 3.859401 -19.865603 -28.274834 -6.297780 -92.526546 7.537465 -0.954401 -11.986173 14.246176 -4.076661 -74.097301 -49.840504 4.307383 0.007265 -1.361300 -3.668391 5.508345 -18.554125 -40.627964 -21.151791 -12.248444 53.642813 -5.978594 1.958324 2.750193 -3.564800 -0.636044 -9.102106 8.821716 33.937090 -1.494557 29.032796 -34.412913 29.188436 -15.126559 -6.297517 -30.447949 -1.947096 0.055723 -0.619968 0.045054
